# xmcd CD database file
#
# Track frame offsets:
#	150
#	18042
#	33590
#	46585
#
# Disc length: 858 seconds
#
# Revision: 0
# Processed by: cddbd v1.5.1PL0 Copyright (c) Steve Scherf et al.
# Submitted via: CDex 1.51
#
DISCID=20035804
DTITLE=徳山秀典 - FOR REAL
DYEAR=1900
DGENRE=Anime
TTITLE0=FOR REAL
TTITLE1=FOR REAL(Piano Version)
TTITLE2=FOR REAL(Guitar Version)
TTITLE3=FOR REAL(Instrumental)
EXTD=
EXTT0=
EXTT1=
EXTT2=
EXTT3=
PLAYORDER=
